<svg xmlns="http://www.w3.org/2000/svg" width="72" height="72"><path d="M68.5 54.569a6.933 6.933 0 0 1-6.932 6.932H10.432A6.933 6.933 0 0 1 3.5 54.569V17.432a6.933 6.933 0 0 1 6.932-6.932h51.137a6.933 6.933 0 0 1 6.932 6.932v37.137zm-4-37.137a2.932 2.932 0 0 0-2.932-2.932H10.432A2.932 2.932 0 0 0 7.5 17.432v37.137a2.932 2.932 0 0 0 2.932 2.932h51.137a2.932 2.932 0 0 0 2.932-2.932V17.432z"/><path d="M35.159 41.932c-.224 0-.447-.076-.632-.225l-16.765-13.65a1.001 1.001 0 0 1 1.263-1.551l16.14 13.14 15.748-12.54a1 1 0 1 1 1.246 1.564L35.782 41.713a.987.987 0 0 1-.623.219zM20.659 46.182a1 1 0 0 1-.767-1.64l.438-.523a1 1 0 1 1 1.535 1.281l-.438.523a.992.992 0 0 1-.768.359z"/><path d="M23.213 43.122a1 1 0 0 1-.748-1.664l5.625-6.336a1 1 0 1 1 1.496 1.328l-5.625 6.336a1.001 1.001 0 0 1-.748.336zM48.217 44.977c-.286 0-.57-.123-.769-.359l-6.016-7.195a1 1 0 0 1 1.535-1.283l6.016 7.195a1.002 1.002 0 0 1-.766 1.642z"/></svg>