<svg width="37" height="37" viewBox="0 0 37 37" fill="none" xmlns="http://www.w3.org/2000/svg">
<circle cx="17.8509" cy="11.2203" r="7.36613" stroke="#A7A7A7" stroke-width="1.5" stroke-linecap="round" stroke-linejoin="round"/>
<path fill-rule="evenodd" clip-rule="evenodd" d="M6.16669 28.8312C6.16471 28.3134 6.28052 27.8019 6.50537 27.3354C7.21093 25.9243 9.20064 25.1764 10.8517 24.8377C12.0424 24.5836 13.2496 24.4138 14.4642 24.3297C16.713 24.1321 18.9747 24.1321 21.2235 24.3297C22.438 24.4148 23.6451 24.5845 24.836 24.8377C26.4871 25.1764 28.4768 25.8537 29.1823 27.3354C29.6345 28.2863 29.6345 29.3902 29.1823 30.3411C28.4768 31.8228 26.4871 32.5002 24.836 32.8247C23.6467 33.0893 22.4391 33.2639 21.2235 33.3468C19.3932 33.502 17.5543 33.5303 15.7201 33.4315C15.2967 33.4315 14.8875 33.4315 14.4642 33.3468C13.2531 33.2649 12.0502 33.0903 10.8658 32.8247C9.20064 32.5002 7.22505 31.8228 6.50537 30.3411C6.28167 29.8692 6.16598 29.3534 6.16669 28.8312Z" stroke="#A7A7A7" stroke-width="1.5" stroke-linecap="round" stroke-linejoin="round"/>
</svg>
