<svg width="17" height="24" viewBox="0 0 17 24" fill="none" xmlns="http://www.w3.org/2000/svg">
<path d="M6.58823 20.8097C6.58823 22.342 6.21599 23.5843 5.17646 23.5843H1.88235C-7.18236e-06 23.5843 -7.18236e-06 13.8732 1.88235 13.8732H5.17646C6.21599 13.8732 6.58823 15.1155 6.58823 16.6478V20.8097Z" fill="#553788"/>
<path d="M15.5294 22.197H15.0588V15.2605H15.5294C15.7896 15.2605 16 14.9504 16 14.5668C16 14.1832 15.7896 13.8732 15.5294 13.8732H4.2353C2.35294 13.8732 2.35294 23.5843 4.2353 23.5843H15.5294C15.7896 23.5843 16 23.2743 16 22.8907C16 22.5071 15.7896 22.197 15.5294 22.197Z" fill="#9266CC"/>
<path d="M15.6104 22.1969H4.70588C3.76471 22.1969 3.76471 15.2604 4.70588 15.2604H15.6104C16.1299 15.2604 16.1299 22.1969 15.6104 22.1969Z" fill="#CCD6DD"/>
<path d="M4.94118 16.6477H15.9294C15.8659 15.8326 15.76 15.2604 15.6104 15.2604H4.70589C3.92895 15.2604 3.79389 19.9828 4.29977 21.6337C4.1153 19.5812 4.32895 16.6477 4.94118 16.6477Z" fill="#99AAB5"/>
<path d="M5.17647 4.85559C5.17647 6.38788 4.33365 7.63021 3.29412 7.63021H1.41176C-0.470588 7.63021 -0.470588 0 1.41176 0H3.29412C4.33365 0 5.17647 1.24234 5.17647 2.77462V4.85559Z" fill="#226699"/>
<path d="M14.1176 6.2429H13.6471V1.38731H14.1176C14.3779 1.38731 14.5882 1.07725 14.5882 0.693656C14.5882 0.310064 14.3779 0 14.1176 0H2.82352C0.94117 0 0.94117 7.63021 2.82352 7.63021H14.1176C14.3779 7.63021 14.5882 7.32015 14.5882 6.93656C14.5882 6.55297 14.3779 6.2429 14.1176 6.2429Z" fill="#55ACEE"/>
<path d="M14.1986 6.24292H3.29412C2.35295 6.24292 2.35295 1.38733 3.29412 1.38733H14.1986C14.7181 1.38733 14.7181 6.24292 14.1986 6.24292Z" fill="#CCD6DD"/>
<path d="M3.29411 2.77464H14.5529C14.4993 1.99428 14.3816 1.38733 14.1986 1.38733H3.29411C2.7327 1.38733 2.5087 3.11384 2.61741 4.50878C2.69082 3.5668 2.91435 2.77464 3.29411 2.77464Z" fill="#99AAB5"/>
<path d="M8.94118 11.0985C8.94118 12.6308 8.09835 13.8732 7.05882 13.8732H2.35294C0.470589 13.8732 0.470589 7.63025 2.35294 7.63025H7.05882C8.09835 7.63025 8.94118 8.87259 8.94118 10.4049V11.0985Z" fill="#F4900C"/>
<path d="M16 12.4858H15.5294V9.01756H16C16.2602 9.01756 16.4706 8.7075 16.4706 8.3239C16.4706 7.94031 16.2602 7.63025 16 7.63025H6.58823C4.70588 7.63025 4.70588 13.8732 6.58823 13.8732H16C16.2602 13.8732 16.4706 13.5631 16.4706 13.1795C16.4706 12.7959 16.2602 12.4858 16 12.4858Z" fill="#FFAC33"/>
<path d="M16.0809 12.4859H7.05882C6.11764 12.4859 6.11764 9.01758 7.05882 9.01758H16.0809C16.6005 9.01758 16.6005 12.4859 16.0809 12.4859Z" fill="#CCD6DD"/>
<path d="M7.05882 10.4049H16.4631C16.4325 9.66823 16.3059 9.01758 16.0809 9.01758H7.05882C6.45929 9.01758 6.24329 10.4236 6.408 11.4454C6.50117 10.8634 6.71717 10.4049 7.05882 10.4049Z" fill="#99AAB5"/>
</svg>
